<svg width="37" height="37" viewBox="0 0 37 37" fill="none" xmlns="http://www.w3.org/2000/svg">
<rect width="36.3154" height="36.3154" rx="8" fill="url(#paint0_linear_1047_2205)"/>
<g filter="url(#filter0_d_1047_2205)">
<path d="M22.7702 18.512L19.1435 17.1719L17.8075 13.5423C17.7284 13.3274 17.5853 13.1419 17.3975 13.0109C17.2096 12.8799 16.9861 12.8096 16.7571 12.8096C16.5281 12.8096 16.3045 12.8799 16.1167 13.0109C15.9289 13.1419 15.7857 13.3274 15.7066 13.5423L14.3622 17.1719L10.7327 18.5078C10.5178 18.5869 10.3323 18.7301 10.2013 18.9179C10.0702 19.1057 10 19.3293 10 19.5583C10 19.7873 10.0702 20.0108 10.2013 20.1987C10.3323 20.3865 10.5178 20.5296 10.7327 20.6087L14.3622 21.9531L15.6982 25.5827C15.7773 25.7976 15.9204 25.9831 16.1083 26.1141C16.2961 26.2451 16.5196 26.3154 16.7486 26.3154C16.9777 26.3154 17.2012 26.2451 17.389 26.1141C17.5769 25.9831 17.72 25.7976 17.7991 25.5827L19.1435 21.9531L22.773 20.6172C22.9879 20.5381 23.1734 20.3949 23.3044 20.2071C23.4355 20.0193 23.5057 19.7957 23.5057 19.5667C23.5057 19.3377 23.4355 19.1142 23.3044 18.9263C23.1734 18.7385 22.9879 18.5954 22.773 18.5162L22.7702 18.512ZM18.5107 20.9842C18.4343 21.0124 18.365 21.0567 18.3074 21.1143C18.2499 21.1718 18.2055 21.2411 18.1774 21.3175L16.7529 25.177L15.3311 21.3203C15.303 21.2432 15.2584 21.1731 15.2003 21.115C15.1423 21.057 15.0722 21.0123 14.995 20.9842L11.1384 19.5625L14.995 18.1408C15.0722 18.1127 15.1423 18.068 15.2003 18.01C15.2584 17.9519 15.303 17.8818 15.3311 17.8047L16.7529 13.948L18.1746 17.8047C18.2027 17.881 18.2471 17.9504 18.3046 18.0079C18.3622 18.0655 18.4315 18.1098 18.5079 18.138L22.3673 19.5625L18.5107 20.9842ZM19.0029 12.25C19.0029 12.1008 19.0621 11.9577 19.1676 11.8523C19.2731 11.7468 19.4162 11.6875 19.5654 11.6875H20.6904V10.5625C20.6904 10.4133 20.7496 10.2702 20.8551 10.1648C20.9606 10.0593 21.1037 10 21.2529 10C21.402 10 21.5451 10.0593 21.6506 10.1648C21.7561 10.2702 21.8154 10.4133 21.8154 10.5625V11.6875H22.9404C23.0895 11.6875 23.2326 11.7468 23.3381 11.8523C23.4436 11.9577 23.5029 12.1008 23.5029 12.25C23.5029 12.3992 23.4436 12.5423 23.3381 12.6477C23.2326 12.7532 23.0895 12.8125 22.9404 12.8125H21.8154V13.9375C21.8154 14.0867 21.7561 14.2298 21.6506 14.3352C21.5451 14.4407 21.402 14.5 21.2529 14.5C21.1037 14.5 20.9606 14.4407 20.8551 14.3352C20.7496 14.2298 20.6904 14.0867 20.6904 13.9375V12.8125H19.5654C19.4162 12.8125 19.2731 12.7532 19.1676 12.6477C19.0621 12.5423 19.0029 12.3992 19.0029 12.25ZM26.3154 15.625C26.3154 15.7742 26.2561 15.9173 26.1506 16.0227C26.0451 16.1282 25.902 16.1875 25.7529 16.1875H25.1904V16.75C25.1904 16.8992 25.1311 17.0423 25.0256 17.1477C24.9201 17.2532 24.777 17.3125 24.6279 17.3125C24.4787 17.3125 24.3356 17.2532 24.2301 17.1477C24.1246 17.0423 24.0654 16.8992 24.0654 16.75V16.1875H23.5029C23.3537 16.1875 23.2106 16.1282 23.1051 16.0227C22.9996 15.9173 22.9404 15.7742 22.9404 15.625C22.9404 15.4758 22.9996 15.3327 23.1051 15.2273C23.2106 15.1218 23.3537 15.0625 23.5029 15.0625H24.0654V14.5C24.0654 14.3508 24.1246 14.2077 24.2301 14.1023C24.3356 13.9968 24.4787 13.9375 24.6279 13.9375C24.777 13.9375 24.9201 13.9968 25.0256 14.1023C25.1311 14.2077 25.1904 14.3508 25.1904 14.5V15.0625H25.7529C25.902 15.0625 26.0451 15.1218 26.1506 15.2273C26.2561 15.3327 26.3154 15.4758 26.3154 15.625Z" fill="white"/>
</g>
<defs>
<filter id="filter0_d_1047_2205" x="6" y="6" width="24.3145" height="24.3145" filterUnits="userSpaceOnUse" color-interpolation-filters="sRGB">
<feFlood flood-opacity="0" result="BackgroundImageFix"/>
<feColorMatrix in="SourceAlpha" type="matrix" values="0 0 0 0 0 0 0 0 0 0 0 0 0 0 0 0 0 0 127 0" result="hardAlpha"/>
<feOffset/>
<feGaussianBlur stdDeviation="2"/>
<feComposite in2="hardAlpha" operator="out"/>
<feColorMatrix type="matrix" values="0 0 0 0 1 0 0 0 0 1 0 0 0 0 1 0 0 0 1 0"/>
<feBlend mode="normal" in2="BackgroundImageFix" result="effect1_dropShadow_1047_2205"/>
<feBlend mode="normal" in="SourceGraphic" in2="effect1_dropShadow_1047_2205" result="shape"/>
</filter>
<linearGradient id="paint0_linear_1047_2205" x1="0" y1="0" x2="36" y2="36" gradientUnits="userSpaceOnUse">
<stop stop-color="#676CFF"/>
<stop offset="1" stop-color="#0EA5E9"/>
</linearGradient>
</defs>
</svg>
