<svg width="18" height="18" viewBox="0 0 18 18" fill="none" xmlns="http://www.w3.org/2000/svg">
<g clip-path="url(#clip0_887_3491)">
<path opacity="0.2" d="M13.6981 10.6472L9.82459 12.0746L8.39724 15.9481C8.35782 16.0549 8.28661 16.1471 8.1932 16.2122C8.09979 16.2772 7.98867 16.3121 7.87482 16.3121C7.76097 16.3121 7.64986 16.2772 7.55645 16.2122C7.46304 16.1471 7.39182 16.0549 7.3524 15.9481L5.92506 12.0746L2.05154 10.6472C1.94473 10.6078 1.85258 10.5366 1.78749 10.4432C1.7224 10.3498 1.6875 10.2387 1.6875 10.1248C1.6875 10.011 1.7224 9.89986 1.78749 9.80645C1.85258 9.71304 1.94473 9.64182 2.05154 9.6024L5.92506 8.17506L7.3524 4.30154C7.39182 4.19473 7.46304 4.10258 7.55645 4.03749C7.64986 3.9724 7.76097 3.9375 7.87482 3.9375C7.98867 3.9375 8.09979 3.9724 8.1932 4.03749C8.28661 4.10258 8.35782 4.19473 8.39724 4.30154L9.82459 8.17506L13.6981 9.6024C13.8049 9.64182 13.8971 9.71304 13.9622 9.80645C14.0272 9.89986 14.0621 10.011 14.0621 10.1248C14.0621 10.2387 14.0272 10.3498 13.9622 10.4432C13.8971 10.5366 13.8049 10.6078 13.6981 10.6472Z" fill="#4F46E5"/>
<g filter="url(#filter0_d_887_3491)">
<path d="M13.8932 9.07453L10.2665 7.73437L8.93059 4.10484C8.85148 3.88992 8.70835 3.70443 8.5205 3.57341C8.33266 3.44239 8.10915 3.37214 7.88012 3.37214C7.6511 3.37214 7.42759 3.44239 7.23975 3.57341C7.0519 3.70443 6.90877 3.88992 6.82966 4.10484L5.48528 7.73437L1.85575 9.07031C1.64082 9.14942 1.45534 9.29256 1.32432 9.4804C1.1933 9.66825 1.12305 9.89176 1.12305 10.1208C1.12305 10.3498 1.1933 10.5733 1.32432 10.7612C1.45534 10.949 1.64082 11.0921 1.85575 11.1712L5.48528 12.5156L6.82122 16.1452C6.90033 16.3601 7.04346 16.5456 7.23131 16.6766C7.41915 16.8076 7.64266 16.8779 7.87169 16.8779C8.10071 16.8779 8.32422 16.8076 8.51206 16.6766C8.69991 16.5456 8.84304 16.3601 8.92215 16.1452L10.2665 12.5156L13.8961 11.1797C14.111 11.1006 14.2965 10.9574 14.4275 10.7696C14.5585 10.5818 14.6288 10.3582 14.6288 10.1292C14.6288 9.90019 14.5585 9.67668 14.4275 9.48884C14.2965 9.301 14.111 9.15786 13.8961 9.07875L13.8932 9.07453ZM9.63372 11.5467C9.55736 11.5749 9.48802 11.6192 9.43049 11.6768C9.37295 11.7343 9.32857 11.8036 9.30044 11.88L7.8759 15.7395L6.45419 11.8828C6.42609 11.8057 6.38144 11.7356 6.32338 11.6775C6.26532 11.6195 6.19525 11.5748 6.11809 11.5467L2.26145 10.125L6.11809 8.70328C6.19525 8.67519 6.26532 8.63054 6.32338 8.57248C6.38144 8.51441 6.42609 8.44434 6.45419 8.36719L7.8759 4.51055L9.29762 8.36719C9.32576 8.44354 9.37013 8.51288 9.42767 8.57042C9.48521 8.62796 9.55455 8.67233 9.63091 8.70047L13.4904 10.125L9.63372 11.5467ZM10.1259 2.8125C10.1259 2.66332 10.1852 2.52024 10.2907 2.41475C10.3961 2.30926 10.5392 2.25 10.6884 2.25H11.8134V1.125C11.8134 0.975816 11.8727 0.832742 11.9782 0.727252C12.0836 0.621763 12.2267 0.5625 12.3759 0.5625C12.5251 0.5625 12.6682 0.621763 12.7737 0.727252C12.8791 0.832742 12.9384 0.975816 12.9384 1.125V2.25H14.0634C14.2126 2.25 14.3557 2.30926 14.4612 2.41475C14.5666 2.52024 14.6259 2.66332 14.6259 2.8125C14.6259 2.96168 14.5666 3.10476 14.4612 3.21025C14.3557 3.31574 14.2126 3.375 14.0634 3.375H12.9384V4.5C12.9384 4.64918 12.8791 4.79226 12.7737 4.89775C12.6682 5.00324 12.5251 5.0625 12.3759 5.0625C12.2267 5.0625 12.0836 5.00324 11.9782 4.89775C11.8727 4.79226 11.8134 4.64918 11.8134 4.5V3.375H10.6884C10.5392 3.375 10.3961 3.31574 10.2907 3.21025C10.1852 3.10476 10.1259 2.96168 10.1259 2.8125ZM17.4384 6.1875C17.4384 6.33668 17.3791 6.47976 17.2737 6.58525C17.1682 6.69074 17.0251 6.75 16.8759 6.75H16.3134V7.3125C16.3134 7.46168 16.2541 7.60476 16.1487 7.71025C16.0432 7.81574 15.9001 7.875 15.7509 7.875C15.6017 7.875 15.4586 7.81574 15.3532 7.71025C15.2477 7.60476 15.1884 7.46168 15.1884 7.3125V6.75H14.6259C14.4767 6.75 14.3336 6.69074 14.2282 6.58525C14.1227 6.47976 14.0634 6.33668 14.0634 6.1875C14.0634 6.03832 14.1227 5.89524 14.2282 5.78975C14.3336 5.68426 14.4767 5.625 14.6259 5.625H15.1884V5.0625C15.1884 4.91332 15.2477 4.77024 15.3532 4.66475C15.4586 4.55926 15.6017 4.5 15.7509 4.5C15.9001 4.5 16.0432 4.55926 16.1487 4.66475C16.2541 4.77024 16.3134 4.91332 16.3134 5.0625V5.625H16.8759C17.0251 5.625 17.1682 5.68426 17.2737 5.78975C17.3791 5.89524 17.4384 6.03832 17.4384 6.1875Z" fill="#4F46E5"/>
</g>
</g>
<defs>
<filter id="filter0_d_887_3491" x="-2.87695" y="-3.4375" width="24.3145" height="24.3145" filterUnits="userSpaceOnUse" color-interpolation-filters="sRGB">
<feFlood flood-opacity="0" result="BackgroundImageFix"/>
<feColorMatrix in="SourceAlpha" type="matrix" values="0 0 0 0 0 0 0 0 0 0 0 0 0 0 0 0 0 0 127 0" result="hardAlpha"/>
<feOffset/>
<feGaussianBlur stdDeviation="2"/>
<feComposite in2="hardAlpha" operator="out"/>
<feColorMatrix type="matrix" values="0 0 0 0 0.309804 0 0 0 0 0.27451 0 0 0 0 0.898039 0 0 0 0.5 0"/>
<feBlend mode="normal" in2="BackgroundImageFix" result="effect1_dropShadow_887_3491"/>
<feBlend mode="normal" in="SourceGraphic" in2="effect1_dropShadow_887_3491" result="shape"/>
</filter>
<clipPath id="clip0_887_3491">
<rect width="18" height="18" fill="white"/>
</clipPath>
</defs>
</svg>
