<svg width="40" height="40" viewBox="0 0 40 40" fill="none" xmlns="http://www.w3.org/2000/svg">
<path d="M15.9991 25.5V15.5567C16.0014 15.546 15.9991 15.535 15.9925 15.5255C15.9859 15.516 15.9754 15.5084 15.9626 15.5041C15.9499 15.4997 15.9357 15.4988 15.9222 15.5015C15.9087 15.5042 15.8968 15.5103 15.8883 15.5189C15.8883 15.5189 14.1013 17.5119 13 18.1006" stroke="white" stroke-width="3" stroke-linecap="round"/>
<path d="M23.9974 15.5H24.0026C25.658 15.5 27 16.851 27 18.5175V22.4825C27 24.149 25.658 25.5 24.0026 25.5H23.9974C22.342 25.5 21 24.149 21 22.4825V18.5175C21 16.851 22.342 15.5 23.9974 15.5Z" stroke="white" stroke-width="3"/>
<path d="M5.98086 9.63086L7.60586 15.0309L13.0059 13.3996" stroke="white" stroke-width="3" stroke-linecap="round"/>
<path d="M7.58726 14.9617C8.78875 11.9228 11.0374 9.41366 13.9271 7.88761C16.8167 6.36156 20.1568 5.9192 23.3441 6.64043C26.5314 7.36166 29.3557 9.19893 31.3068 11.8204C33.258 14.4418 34.2073 17.6746 33.9834 20.9348C33.7595 24.195 32.3771 27.2676 30.0859 29.5977C27.7947 31.9277 24.7457 33.3616 21.4898 33.6404C18.2338 33.9191 14.9855 33.0242 12.3317 31.1174C9.67776 29.2107 7.79325 26.4177 7.01851 23.243" stroke="white" stroke-width="3" stroke-linecap="round"/>
</svg>
