<svg width="32" height="32" viewBox="0 0 32 32" fill="none" xmlns="http://www.w3.org/2000/svg">
<path d="M7.5 24.5L6.79297 25.207M6.79297 25.207L7.5 24.5L7.30371 25.4805M7.5 24.5L7.30371 25.4805M7.30371 25.4805C7.11161 25.442 6.93355 25.3476 6.79297 25.207C6.60544 25.0195 6.5 24.7652 6.5 24.5C6.5 24.3022 6.55906 24.1088 6.66895 23.9443L6.75977 23.8281C6.85854 23.7193 6.98029 23.6329 7.11719 23.5762L7.25781 23.5303C7.35292 23.5065 7.45091 23.4962 7.54883 23.501L7.69531 23.5195L7.83691 23.5586C7.97554 23.6082 8.10207 23.688 8.20703 23.793L8.30371 23.9043C8.39128 24.0224 8.4515 24.1593 8.48047 24.3047C8.51905 24.4987 8.49951 24.7001 8.42383 24.8828C8.34817 25.0654 8.21995 25.2212 8.05566 25.3311C7.89122 25.4409 7.69779 25.5 7.5 25.5C7.43359 25.5 7.36788 25.4933 7.30371 25.4805ZM8.48047 24.3047L7.5 24.499L8.20703 23.793M8.20703 23.793L7.5 24.499M7.5 24.499L8.48047 24.3047M16 24.5L15.293 25.207M15.293 25.207L16 24.5L15.8037 25.4805M16 24.5L15.8037 25.4805M15.8037 25.4805C15.6116 25.442 15.4335 25.3476 15.293 25.207C15.1054 25.0195 15 24.7652 15 24.5C15 24.3022 15.0591 24.1088 15.1689 23.9443L15.2598 23.8281C15.3585 23.7193 15.4803 23.6329 15.6172 23.5762L15.7578 23.5303C15.8529 23.5065 15.9509 23.4962 16.0488 23.501L16.1953 23.5195L16.3369 23.5586C16.4755 23.6082 16.6021 23.688 16.707 23.793L16.8037 23.9043C16.8913 24.0224 16.9515 24.1593 16.9805 24.3047C17.0191 24.4987 16.9995 24.7001 16.9238 24.8828C16.8482 25.0654 16.7199 25.2212 16.5557 25.3311C16.3912 25.4409 16.1978 25.5 16 25.5C15.9336 25.5 15.8679 25.4933 15.8037 25.4805ZM16.9805 24.3047L16 24.499L16.707 23.793M16.707 23.793L16 24.499M16 24.499L16.9805 24.3047M24.5 24.5L23.793 25.207M23.793 25.207L24.5 24.5L24.3037 25.4805M24.5 24.5L24.3037 25.4805M24.3037 25.4805C24.3679 25.4933 24.4336 25.5 24.5 25.5C24.6978 25.5 24.8912 25.4409 25.0557 25.3311C25.22 25.2212 25.3482 25.0654 25.4238 24.8828C25.4995 24.7001 25.5191 24.4987 25.4805 24.3047C25.4515 24.1593 25.3913 24.0224 25.3037 23.9043L25.207 23.793C25.1021 23.688 24.9755 23.6082 24.8369 23.5586L24.6953 23.5195L24.5488 23.501C24.4509 23.4962 24.3529 23.5065 24.2578 23.5303L24.1172 23.5762C23.9803 23.6329 23.8585 23.7193 23.7598 23.8281L23.6689 23.9443C23.5591 24.1088 23.5 24.3022 23.5 24.5C23.5 24.7652 23.6054 25.0195 23.793 25.207M23.793 25.207C23.9335 25.3476 24.1116 25.442 24.3037 25.4805M25.4805 24.3047L24.5 24.499L25.207 23.793M25.207 23.793L24.5 24.499M24.5 24.499L25.4805 24.3047M7.5 16L6.79297 16.707M6.79297 16.707L7.5 16L7.30371 16.9805M7.5 16L7.30371 16.9805M8.48047 15.8047C8.4515 15.6593 8.39128 15.5224 8.30371 15.4043L8.20703 15.293C8.10207 15.188 7.97554 15.1082 7.83691 15.0586L7.69531 15.0195L7.54883 15.001C7.45091 14.9962 7.35292 15.0065 7.25781 15.0303L7.11719 15.0762C6.98029 15.1329 6.85854 15.2193 6.75977 15.3281L6.66895 15.4443C6.55906 15.6088 6.5 15.8022 6.5 16C6.5 16.2652 6.60543 16.5195 6.79297 16.707C6.93355 16.8476 7.11161 16.942 7.30371 16.9805C7.36788 16.9933 7.43359 17 7.5 17C7.69778 17 7.89121 16.9409 8.05566 16.8311C8.21995 16.7212 8.34817 16.5654 8.42383 16.3828C8.49952 16.2001 8.51905 15.9987 8.48047 15.8047ZM8.48047 15.8047L7.5 15.999L8.20703 15.293M8.20703 15.293L7.5 15.999M7.5 15.999L8.48047 15.8047M16 16L15.293 16.707M15.293 16.707L16 16L15.8037 16.9805M16 16L15.8037 16.9805M15.8037 16.9805C15.6116 16.942 15.4335 16.8476 15.293 16.707C15.1054 16.5195 15 16.2652 15 16C15 15.8022 15.0591 15.6088 15.1689 15.4443L15.2598 15.3281C15.3585 15.2193 15.4803 15.1329 15.6172 15.0762L15.7578 15.0303C15.8529 15.0065 15.9509 14.9962 16.0488 15.001L16.1953 15.0195L16.3369 15.0586C16.4755 15.1082 16.6021 15.188 16.707 15.293L16.8037 15.4043C16.8913 15.5224 16.9515 15.6593 16.9805 15.8047C17.0191 15.9987 16.9995 16.2001 16.9238 16.3828C16.8482 16.5654 16.7199 16.7212 16.5557 16.8311C16.3912 16.9409 16.1978 17 16 17C15.9336 17 15.8679 16.9933 15.8037 16.9805ZM16.9805 15.8047L16 15.999L16.707 15.293M16.707 15.293L16 15.999M16 15.999L16.9805 15.8047M24.5 16L23.793 16.707M23.793 16.707L24.5 16L24.3037 16.9805M24.5 16L24.3037 16.9805M25.4805 15.8047C25.4515 15.6593 25.3913 15.5224 25.3037 15.4043L25.207 15.293C25.1021 15.188 24.9755 15.1082 24.8369 15.0586L24.6953 15.0195L24.5488 15.001C24.4509 14.9962 24.3529 15.0065 24.2578 15.0303L24.1172 15.0762C23.9803 15.1329 23.8585 15.2193 23.7598 15.3281L23.6689 15.4443C23.5591 15.6088 23.5 15.8022 23.5 16C23.5 16.2652 23.6054 16.5195 23.793 16.707C23.9335 16.8476 24.1116 16.942 24.3037 16.9805C24.3679 16.9933 24.4336 17 24.5 17C24.6978 17 24.8912 16.9409 25.0557 16.8311C25.22 16.7212 25.3482 16.5654 25.4238 16.3828C25.4995 16.2001 25.5191 15.9987 25.4805 15.8047ZM25.4805 15.8047L24.5 15.999L25.207 15.293M25.207 15.293L24.5 15.999M24.5 15.999L25.4805 15.8047M7.5 7.5L6.79297 8.20703M6.79297 8.20703L7.5 7.5L7.30371 8.48047M7.5 7.5L7.30371 8.48047M7.30371 8.48047C7.11161 8.44201 6.93355 8.34761 6.79297 8.20703C6.60543 8.01949 6.5 7.76521 6.5 7.5C6.5 7.30222 6.55906 7.10879 6.66895 6.94434L6.75977 6.82812C6.85854 6.7193 6.98029 6.6329 7.11719 6.57617L7.25781 6.53027C7.35292 6.50652 7.45091 6.49619 7.54883 6.50098L7.69531 6.51953L7.83691 6.55859C7.97554 6.60821 8.10206 6.688 8.20703 6.79297L8.30371 6.9043C8.39128 7.02245 8.4515 7.15927 8.48047 7.30469C8.51905 7.49867 8.49952 7.70009 8.42383 7.88281C8.34817 8.06539 8.21995 8.22121 8.05566 8.33105C7.89122 8.44094 7.69778 8.5 7.5 8.5C7.43359 8.5 7.36788 8.49332 7.30371 8.48047ZM8.48047 7.30469L7.5 7.49902L8.20703 6.79297M8.20703 6.79297L7.5 7.49902M7.5 7.49902L8.48047 7.30469M16 7.5L15.293 8.20703M15.293 8.20703L16 7.5L15.8037 8.48047M16 7.5L15.8037 8.48047M16.9805 7.30469C16.9515 7.15927 16.8913 7.02245 16.8037 6.9043L16.707 6.79297C16.6021 6.688 16.4755 6.60821 16.3369 6.55859L16.1953 6.51953L16.0488 6.50098C15.9509 6.49619 15.8529 6.50652 15.7578 6.53027L15.6172 6.57617C15.4803 6.6329 15.3585 6.7193 15.2598 6.82812L15.1689 6.94434C15.0591 7.10878 15 7.30222 15 7.5C15 7.76522 15.1054 8.0195 15.293 8.20703C15.4335 8.34761 15.6116 8.44201 15.8037 8.48047C15.8679 8.49332 15.9336 8.5 16 8.5C16.1978 8.5 16.3912 8.44094 16.5557 8.33105C16.7199 8.22121 16.8482 8.06539 16.9238 7.88281C16.9995 7.70009 17.0191 7.49867 16.9805 7.30469ZM16.9805 7.30469L16 7.49902L16.707 6.79297M16.707 6.79297L16 7.49902M16 7.49902L16.9805 7.30469M23.793 8.20703C23.6532 8.06725 23.5582 7.88919 23.5195 7.69531C23.4809 7.50132 23.5005 7.2999 23.5762 7.11719L23.6426 6.98535C23.7182 6.85936 23.8212 6.75129 23.9443 6.66895L24.0732 6.5957C24.2062 6.53298 24.3518 6.5 24.5 6.5C24.7652 6.5 25.0195 6.60544 25.207 6.79297L25.2734 6.86621C25.4193 7.04417 25.5 7.26791 25.5 7.5C25.5 7.69779 25.4409 7.89122 25.3311 8.05566C25.2212 8.21995 25.0654 8.34817 24.8828 8.42383C24.7001 8.49951 24.4987 8.51905 24.3047 8.48047C24.1108 8.44185 23.9328 8.34682 23.793 8.20703Z" fill="#005FAA" stroke="#005FAA" stroke-width="5"/>
</svg>
