<svg width="40" height="40" viewBox="0 0 40 40" fill="none" xmlns="http://www.w3.org/2000/svg">
<path d="M15.4991 25.5V15.5567C15.5014 15.546 15.4991 15.535 15.4925 15.5255C15.4859 15.516 15.4754 15.5084 15.4626 15.5041C15.4499 15.4997 15.4357 15.4988 15.4222 15.5015C15.4087 15.5042 15.3968 15.5103 15.3883 15.5189C15.3883 15.5189 13.6013 17.5119 12.5 18.1006" stroke="white" stroke-width="3" stroke-linecap="round"/>
<path d="M23.5026 15.5H23.4974C21.842 15.5 20.5 16.851 20.5 18.5175V22.4825C20.5 24.149 21.842 25.5 23.4974 25.5H23.5026C25.158 25.5 26.5 24.149 26.5 22.4825V18.5175C26.5 16.851 25.158 15.5 23.5026 15.5Z" stroke="white" stroke-width="3"/>
<path d="M34.0191 9.63086L32.3941 15.0309L26.9941 13.3996" stroke="white" stroke-width="3" stroke-linecap="round"/>
<path d="M32.4127 14.9617C31.2113 11.9228 28.9626 9.41366 26.0729 7.88761C23.1833 6.36156 19.8432 5.9192 16.6559 6.64043C13.4686 7.36166 10.6443 9.19893 8.69317 11.8204C6.74203 14.4418 5.79267 17.6746 6.01657 20.9348C6.24048 24.195 7.62289 27.2676 9.9141 29.5977C12.2053 31.9277 15.2543 33.3616 18.5102 33.6404C21.7662 33.9191 25.0145 33.0242 27.6683 31.1174C30.3222 29.2107 32.2068 26.4177 32.9815 23.243" stroke="white" stroke-width="3" stroke-linecap="round"/>
</svg>
