<svg width="18" height="18" viewBox="0 0 18 18" fill="none" xmlns="http://www.w3.org/2000/svg">
<path opacity="0.2" d="M15.75 9C15.75 10.7902 15.0388 12.5071 13.773 13.773C12.5071 15.0388 10.7902 15.75 9 15.75V2.25C10.7902 2.25 12.5071 2.96116 13.773 4.22703C15.0388 5.4929 15.75 7.20979 15.75 9Z" fill="black"/>
<path d="M9 1.6875C7.55373 1.6875 6.13993 2.11637 4.9374 2.91988C3.73486 3.72339 2.7976 4.86544 2.24413 6.20163C1.69067 7.53781 1.54586 9.00811 1.82801 10.4266C2.11017 11.8451 2.80661 13.148 3.82928 14.1707C4.85196 15.1934 6.15492 15.8898 7.57341 16.172C8.99189 16.4541 10.4622 16.3093 11.7984 15.7559C13.1346 15.2024 14.2766 14.2651 15.0801 13.0626C15.8836 11.8601 16.3125 10.4463 16.3125 9C16.3105 7.06123 15.5394 5.20246 14.1685 3.83154C12.7975 2.46063 10.9388 1.68955 9 1.6875ZM2.8125 9C2.81436 7.45692 3.392 5.97008 4.43238 4.83048C5.47276 3.69088 6.90098 2.98055 8.4375 2.83852V15.1615C6.90098 15.0195 5.47276 14.3091 4.43238 13.1695C3.392 12.0299 2.81436 10.5431 2.8125 9ZM9.5625 15.1615V2.83852C11.0989 2.97985 12.5271 3.69011 13.5669 4.82998C14.6068 5.96986 15.1832 7.4571 15.1832 9C15.1832 10.5429 14.6068 12.0301 13.5669 13.17C12.5271 14.3099 11.0989 15.0201 9.5625 15.1615Z" fill="black"/>
</svg>
