<svg width="24" height="25" viewBox="0 0 24 25" fill="none" xmlns="http://www.w3.org/2000/svg">
<path d="M0.345 2.24887C0.237419 2.34212 0.150991 2.45726 0.0914936 2.58661C0.0319966 2.71595 0.000803345 2.8565 0 2.99887V23.9989C0 24.2641 0.105357 24.5184 0.292893 24.706C0.48043 24.8935 0.734784 24.9989 1 24.9989C1.26522 24.9989 1.51957 24.8935 1.70711 24.706C1.89464 24.5184 2 24.2641 2 23.9989V18.4701C5.34875 15.8251 8.23375 17.2514 11.5562 18.8964C13.6062 19.9101 15.8137 21.0026 18.1812 21.0026C19.9225 21.0026 21.7488 20.4089 23.6588 18.7526C23.7663 18.6594 23.8528 18.5442 23.9123 18.4149C23.9718 18.2855 24.0029 18.145 24.0037 18.0026V2.99887C24.0033 2.80693 23.9476 2.61917 23.8433 2.45801C23.7391 2.29686 23.5906 2.16912 23.4157 2.09004C23.2408 2.01096 23.0469 1.98389 22.857 2.01205C22.6672 2.04021 22.4894 2.12243 22.345 2.24887C18.845 5.27762 15.88 3.81012 12.4438 2.10887C8.88375 0.343868 4.8475 -1.65238 0.345 2.24887ZM22 17.5301C18.6512 20.1751 15.7663 18.7476 12.4438 17.1039C9.31875 15.5601 5.8425 13.8376 2 16.0539V3.47262C5.34875 0.827618 8.23375 2.25387 11.5562 3.89762C14.6812 5.44137 18.1588 7.16387 22 4.94762V17.5301Z" fill="#D97706"/>
</svg>
