<svg width="24" height="24" viewBox="0 0 24 24" fill="none" xmlns="http://www.w3.org/2000/svg">
<path d="M23.7259 14.3764C23.6052 14.2554 23.4538 14.1695 23.2879 14.128C23.1221 14.0866 22.9481 14.0911 22.7846 14.141C20.9897 14.6837 19.0812 14.7293 17.2625 14.2727C15.4437 13.8161 13.7829 12.8745 12.457 11.5483C11.1311 10.2221 10.1897 8.56099 9.73324 6.74189C9.27675 4.92278 9.32225 3.01388 9.86488 1.2186C9.91524 1.05501 9.92006 0.880785 9.87883 0.714661C9.83759 0.548537 9.75186 0.396799 9.63085 0.275766C9.50984 0.154733 9.35814 0.0689834 9.19205 0.0277403C9.02596 -0.0135029 8.85177 -0.00867944 8.68822 0.0416917C6.20667 0.802025 4.02809 2.32582 2.4625 4.39624C1.09335 6.21439 0.258206 8.37838 0.0508907 10.6451C-0.156425 12.9118 0.272303 15.1915 1.28891 17.2279C2.30551 19.2643 3.86972 20.9769 5.80579 22.1732C7.74186 23.3695 9.97308 24.0021 12.2488 23.9999C14.9037 24.0081 17.4881 23.1449 19.6053 21.5426C21.6753 19.9766 23.1988 17.7976 23.9589 15.3156C24.0087 15.1526 24.0133 14.9791 23.9723 14.8137C23.9313 14.6484 23.8461 14.4972 23.7259 14.3764ZM18.4733 20.0385C16.4795 21.5405 14.0104 22.2716 11.5204 22.0973C9.03039 21.9229 6.68719 20.8547 4.92212 19.0894C3.15705 17.3241 2.08893 14.9805 1.91438 12.49C1.73982 9.99955 2.47059 7.52982 3.97216 5.53548C4.95044 4.24331 6.21519 3.19585 7.66687 2.47553C7.58418 3.05601 7.5425 3.6416 7.54215 4.22794C7.54557 7.47309 8.83596 10.5843 11.1301 12.879C13.4243 15.1737 16.535 16.4643 19.7794 16.4678C20.3668 16.4676 20.9535 16.4259 21.535 16.343C20.8142 17.7952 19.7661 19.0603 18.4733 20.0385Z" fill="#7A8FA6"/>
</svg>
