<svg width="41" height="41" viewBox="0 0 41 41" fill="none" xmlns="http://www.w3.org/2000/svg">
<circle cx="20.5" cy="20.5" r="20.5" fill="white"/>
<path d="M19.1051 14.2752C19.1051 12.9119 17.9999 11.8066 16.6366 11.8066C15.2732 11.8066 14.168 12.9119 14.168 14.2752V26.7255C14.168 28.0889 15.2732 29.1941 16.6366 29.1941C17.9999 29.1941 19.1051 28.0889 19.1051 26.7255V14.2752Z" fill="#375992"/>
<path d="M26.8329 14.2752C26.8329 12.9119 25.7277 11.8066 24.3643 11.8066C23.0009 11.8066 21.8957 12.9119 21.8957 14.2752V26.7255C21.8957 28.0889 23.0009 29.1941 24.3643 29.1941C25.7277 29.1941 26.8329 28.0889 26.8329 26.7255V14.2752Z" fill="#375992"/>
</svg>
