<svg width="20" height="24" viewBox="0 0 20 24" fill="none" xmlns="http://www.w3.org/2000/svg">
<path d="M19.1384 10.4415L2.76392 0.271723C2.48786 0.100096 2.17167 0.00640164 1.84801 0.000316546C1.52435 -0.00576855 1.20496 0.0759762 0.922824 0.237109C0.643374 0.395738 0.410584 0.627075 0.248394 0.907328C0.0862038 1.18758 0.000466933 1.50664 0 1.83168V22.1689C0.00210564 22.6565 0.194831 23.1232 0.53581 23.4666C0.876789 23.81 1.33811 24.0018 1.81837 24C2.15358 23.9998 2.48228 23.906 2.76847 23.7288L19.1384 13.5591C19.4015 13.3963 19.619 13.1675 19.7699 12.8947C19.9207 12.6219 20 12.3143 20 12.0014C20 11.6886 19.9207 11.381 19.7699 11.1082C19.619 10.8354 19.4015 10.6066 19.1384 10.4438V10.4415ZM1.81837 22.147V1.84668L18.1644 12.0003L1.81837 22.147Z" fill="#0EA5E9"/>
</svg>
