<svg width="16" height="20" viewBox="0 0 16 20" fill="none" xmlns="http://www.w3.org/2000/svg">
<path d="M15.3107 8.70123L2.21114 0.226436C1.99029 0.0834134 1.73733 0.0053347 1.47841 0.000263788C1.21948 -0.00480712 0.963968 0.0633135 0.738259 0.19759C0.514699 0.329782 0.328467 0.522562 0.198715 0.756107C0.0689631 0.989651 0.000373546 1.25553 0 1.5264V18.4741C0.00168451 18.8804 0.155865 19.2694 0.428648 19.5555C0.701431 19.8416 1.07049 20.0015 1.4547 20C1.72286 19.9999 1.98583 19.9217 2.21478 19.774L15.3107 11.2992C15.5212 11.1636 15.6952 10.9729 15.8159 10.7456C15.9366 10.5182 16 10.2619 16 10.0012C16 9.74048 15.9366 9.48415 15.8159 9.25683C15.6952 9.02951 15.5212 8.83884 15.3107 8.70315V8.70123ZM1.4547 18.4558V1.5389L14.5315 10.0002L1.4547 18.4558Z" fill="white"/>
</svg>
