<svg width="12" height="22" viewBox="0 0 12 22" fill="none" xmlns="http://www.w3.org/2000/svg">
<path d="M0.293253 11.7075L10.2921 21.707C10.385 21.7999 10.4953 21.8736 10.6167 21.9238C10.7381 21.9741 10.8682 22 10.9996 22C11.1309 22 11.261 21.9741 11.3824 21.9238C11.5038 21.8736 11.6141 21.7999 11.707 21.707C11.7999 21.6141 11.8736 21.5038 11.9238 21.3824C11.9741 21.261 12 21.1309 12 20.9995C12 20.8681 11.9741 20.738 11.9238 20.6166C11.8736 20.4952 11.7999 20.3849 11.707 20.292L2.41427 11L11.707 1.70797C11.8946 1.52034 12 1.26586 12 1.00051C12 0.735155 11.8946 0.480672 11.707 0.293041C11.5194 0.10541 11.2649 1.97702e-09 10.9996 0C10.7342 -1.97702e-09 10.4798 0.10541 10.2921 0.293041L0.293253 10.2925C0.200287 10.3854 0.126535 10.4957 0.0762167 10.6171C0.025898 10.7385 0 10.8686 0 11C0 11.1314 0.025898 11.2615 0.0762167 11.3829C0.126535 11.5043 0.200287 11.6146 0.293253 11.7075Z" fill="#3A4A5C"/>
</svg>
