<svg width="32" height="32" viewBox="0 0 32 32" fill="none" xmlns="http://www.w3.org/2000/svg">
<path d="M19.3374 3.59328C19.175 3.51764 18.9937 3.48705 18.8141 3.505C18.6345 3.52295 18.4637 3.58872 18.3212 3.69482L9.89224 9.96159H4.43103C3.91889 9.96159 3.42773 10.1561 3.06559 10.5023C2.70345 10.8486 2.5 11.3182 2.5 11.8078V19.1927C2.5 19.6823 2.70345 20.1519 3.06559 20.4982C3.42773 20.8444 3.91889 21.0389 4.43103 21.0389H9.89224L18.3212 27.3057C18.4638 27.4117 18.6347 27.4773 18.8144 27.4951C18.9941 27.5129 19.1755 27.4821 19.3378 27.4062C19.5001 27.3304 19.6369 27.2125 19.7326 27.066C19.8284 26.9195 19.8792 26.7503 19.8793 26.5776V4.42292C19.8793 4.24999 19.8285 4.08052 19.7327 3.93384C19.6369 3.78716 19.5 3.66915 19.3374 3.59328ZM4.43103 11.8078H9.25862V19.1927H4.43103V11.8078ZM17.9483 24.6898L11.1897 19.6646V11.3359L17.9483 6.31069V24.6898ZM24.4655 12.4494C25.2421 13.2923 25.6705 14.377 25.6705 15.5003C25.6705 16.6235 25.2421 17.7082 24.4655 18.5511C24.2949 18.7303 24.0575 18.8382 23.8044 18.8515C23.5514 18.8648 23.303 18.7825 23.1129 18.6222C22.9228 18.462 22.8062 18.2367 22.7883 17.995C22.7704 17.7533 22.8527 17.5146 23.0172 17.3303C23.4829 16.8246 23.7398 16.174 23.7398 15.5003C23.7398 14.8265 23.4829 14.1759 23.0172 13.6702C22.8527 13.4859 22.7704 13.2472 22.7883 13.0055C22.8062 12.7638 22.9228 12.5385 23.1129 12.3783C23.303 12.218 23.5514 12.1357 23.8044 12.149C24.0575 12.1623 24.2949 12.2702 24.4655 12.4494ZM30.5 15.5003C30.5014 17.7713 29.626 19.963 28.0415 21.6551C27.8696 21.833 27.6313 21.9392 27.3782 21.9506C27.125 21.9621 26.8773 21.878 26.6885 21.7164C26.4997 21.5548 26.3849 21.3287 26.3689 21.0869C26.3529 20.8451 26.4369 20.607 26.6029 20.4239C27.8695 19.07 28.5697 17.3173 28.5697 15.5008C28.5697 13.6844 27.8695 11.9317 26.6029 10.5778C26.516 10.4878 26.4486 10.3823 26.4048 10.2672C26.361 10.1521 26.3415 10.0299 26.3476 9.90756C26.3536 9.78524 26.3851 9.66529 26.4401 9.5547C26.4951 9.44412 26.5726 9.3451 26.668 9.26343C26.7635 9.18175 26.875 9.11905 26.996 9.07896C27.117 9.03888 27.2452 9.02223 27.373 9.02996C27.5008 9.0377 27.6258 9.06968 27.7406 9.12403C27.8553 9.17839 27.9576 9.25403 28.0415 9.34657C29.6264 11.038 30.5019 13.2294 30.5 15.5003Z" fill="#0EA5E9"/>
</svg>
