<svg width="20" height="20" viewBox="0 0 20 20" fill="none" xmlns="http://www.w3.org/2000/svg">
<path d="M10.643 10.6431L1.55268 19.7336C1.38211 19.9042 1.15077 20 0.909541 20C0.668316 20 0.43697 19.9042 0.266398 19.7336C0.0958263 19.563 4.75513e-09 19.3317 0 19.0904C-4.75513e-09 18.8492 0.0958263 18.6179 0.266398 18.4473L8.71475 10L0.266398 1.5527C0.0958263 1.38213 0 1.15078 0 0.90955C0 0.668323 0.0958263 0.436975 0.266398 0.266401C0.43697 0.0958273 0.668316 0 0.909541 0C1.15077 0 1.38211 0.0958273 1.55268 0.266401L10.643 9.35685C10.7276 9.44127 10.7946 9.54153 10.8404 9.65189C10.8861 9.76225 10.9096 9.88054 10.9096 10C10.9096 10.1195 10.8861 10.2378 10.8404 10.3481C10.7946 10.4585 10.7276 10.5587 10.643 10.6431ZM19.7334 9.35685L10.643 0.266401C10.4725 0.0958273 10.2411 0 9.9999 0C9.75867 0 9.52732 0.0958273 9.35675 0.266401C9.18618 0.436975 9.09035 0.668323 9.09035 0.90955C9.09035 1.15078 9.18618 1.38213 9.35675 1.5527L17.8051 10L9.35675 18.4473C9.18618 18.6179 9.09035 18.8492 9.09035 19.0904C9.09035 19.3317 9.18618 19.563 9.35675 19.7336C9.52732 19.9042 9.75867 20 9.9999 20C10.2411 20 10.4725 19.9042 10.643 19.7336L19.7334 10.6431C19.8179 10.5587 19.885 10.4585 19.9307 10.3481C19.9765 10.2378 20 10.1195 20 10C20 9.88054 19.9765 9.76225 19.9307 9.65189C19.885 9.54153 19.8179 9.44127 19.7334 9.35685Z" fill="white"/>
</svg>
