<svg width="19" height="18" viewBox="0 0 19 18" fill="none" xmlns="http://www.w3.org/2000/svg">
<g clip-path="url(#clip0_499_1900)">
<path d="M6.48928 2.46851C6.43637 2.36347 6.35252 2.27465 6.24753 2.21244C6.14253 2.15022 6.02074 2.11719 5.89637 2.11719C5.772 2.11719 5.6502 2.15022 5.54521 2.21244C5.44022 2.27465 5.35637 2.36347 5.30346 2.46851L0.0622984 12.8629C0.0256798 12.9355 0.00475567 13.0142 0.000720824 13.0944C-0.00331402 13.1746 0.00961938 13.2548 0.0387826 13.3304C0.0976803 13.4829 0.21911 13.6074 0.376359 13.6764C0.533607 13.7455 0.713794 13.7534 0.877279 13.6984C1.04076 13.6434 1.17416 13.5301 1.24811 13.3833L2.61245 10.6778H9.18029L10.5446 13.3833C10.5812 13.456 10.6328 13.5212 10.6965 13.5753C10.7601 13.6293 10.8345 13.6712 10.9155 13.6984C10.9964 13.7256 11.0823 13.7377 11.1683 13.7339C11.2542 13.7301 11.3385 13.7106 11.4164 13.6764C11.4942 13.6423 11.5641 13.5941 11.6221 13.5347C11.68 13.4754 11.7248 13.4059 11.754 13.3304C11.7831 13.2548 11.7961 13.1746 11.792 13.0944C11.788 13.0142 11.7671 12.9355 11.7304 12.8629L6.48928 2.46851ZM3.22911 9.45489L5.89637 4.16523L8.56363 9.45489H3.22911ZM15.7236 5.78629C14.6786 5.78629 13.8621 6.0515 13.2971 6.57504C13.1788 6.69014 13.1133 6.84382 13.1147 7.00331C13.1161 7.1628 13.1842 7.31546 13.3045 7.42874C13.4249 7.54201 13.5878 7.60693 13.7587 7.60965C13.9296 7.61236 14.0948 7.55266 14.2192 7.44328C14.5304 7.15514 15.0381 7.00916 15.7236 7.00916C16.807 7.00916 17.689 7.69702 17.689 8.53774V8.78384C17.1076 8.42082 16.423 8.22862 15.7236 8.23202C13.917 8.23202 12.4478 9.46635 12.4478 10.9835C12.4478 12.5006 13.917 13.7349 15.7236 13.7349C16.4233 13.7378 17.1079 13.5448 17.689 13.1808C17.6971 13.343 17.774 13.4955 17.9026 13.6048C18.0312 13.714 18.2011 13.7712 18.3748 13.7636C18.5486 13.756 18.712 13.6843 18.8291 13.5642C18.9462 13.4442 19.0074 13.2856 18.9993 13.1235V8.53774C18.9993 7.02062 17.5301 5.78629 15.7236 5.78629ZM15.7236 12.512C14.6401 12.512 13.7581 11.8242 13.7581 10.9835C13.7581 10.1427 14.6401 9.45489 15.7236 9.45489C16.807 9.45489 17.689 10.1427 17.689 10.9835C17.689 11.8242 16.807 12.512 15.7236 12.512Z" fill="#005FAA"/>
</g>
<defs>
<clipPath id="clip0_499_1900">
<rect width="19" height="18" fill="white"/>
</clipPath>
</defs>
</svg>
