<svg width="24" height="24" viewBox="0 0 24 24" fill="none" xmlns="http://www.w3.org/2000/svg">
<mask id="path-1-inside-1_336_1455" fill="white">
<path d="M12 0C9.62663 0 7.30655 0.703788 5.33316 2.02236C3.35977 3.34094 1.8217 5.21508 0.913451 7.4078C0.00519943 9.60051 -0.232441 12.0133 0.230582 14.3411C0.693605 16.6689 1.83649 18.807 3.51472 20.4853C5.19295 22.1635 7.33115 23.3064 9.65892 23.7694C11.9867 24.2324 14.3995 23.9948 16.5922 23.0865C18.7849 22.1783 20.6591 20.6402 21.9776 18.6668C23.2962 16.6934 24 14.3734 24 12C23.9966 8.81843 22.7313 5.76814 20.4816 3.51843C18.2319 1.26872 15.1816 0.00335979 12 0ZM12 22.1538C9.99176 22.1538 8.02862 21.5583 6.35883 20.4426C4.68904 19.3269 3.38759 17.7411 2.61907 15.8857C1.85055 14.0303 1.64947 11.9887 2.04126 10.0191C2.43305 8.04943 3.40011 6.24019 4.82015 4.82015C6.24019 3.4001 8.04943 2.43304 10.0191 2.04126C11.9887 1.64947 14.0303 1.85055 15.8857 2.61907C17.7411 3.38759 19.3269 4.68903 20.4426 6.35882C21.5583 8.02861 22.1538 9.99176 22.1538 12C22.1508 14.692 21.08 17.2729 19.1765 19.1765C17.2729 21.08 14.692 22.1508 12 22.1538ZM19.3846 12C19.3846 12.2448 19.2874 12.4796 19.1143 12.6527C18.9411 12.8258 18.7064 12.9231 18.4615 12.9231H12C11.7552 12.9231 11.5204 12.8258 11.3473 12.6527C11.1742 12.4796 11.0769 12.2448 11.0769 12V5.53846C11.0769 5.29365 11.1742 5.05886 11.3473 4.88575C11.5204 4.71264 11.7552 4.61538 12 4.61538C12.2448 4.61538 12.4796 4.71264 12.6527 4.88575C12.8258 5.05886 12.9231 5.29365 12.9231 5.53846V11.0769H18.4615C18.7064 11.0769 18.9411 11.1742 19.1143 11.3473C19.2874 11.5204 19.3846 11.7552 19.3846 12Z"/>
</mask>
<path d="M12 0L12.0026 -2.5H12V0ZM24 12H26.5L26.5 11.9974L24 12ZM12 22.1538V24.6538L12.0028 24.6538L12 22.1538ZM22.1538 12L24.6538 12.0028V12H22.1538ZM12 4.61538V7.11538V4.61538ZM12.9231 11.0769H10.4231V13.5769H12.9231V11.0769ZM12 0V-2.5C9.13217 -2.5 6.32875 -1.64959 3.94424 -0.0563097L5.33316 2.02236L6.72209 4.10104C8.28435 3.05717 10.1211 2.5 12 2.5V0ZM5.33316 2.02236L3.94424 -0.0563097C1.55972 1.53697 -0.298777 3.80156 -1.39625 6.45109L0.913451 7.4078L3.22315 8.36451C3.94218 6.62861 5.15982 5.14491 6.72209 4.10104L5.33316 2.02236ZM0.913451 7.4078L-1.39625 6.45109C-2.49372 9.10062 -2.78087 12.0161 -2.22138 14.8288L0.230582 14.3411L2.68255 13.8534C2.31599 12.0105 2.50412 10.1004 3.22315 8.36451L0.913451 7.4078ZM0.230582 14.3411L-2.22138 14.8288C-1.6619 17.6415 -0.280905 20.2252 1.74696 22.253L3.51472 20.4853L5.28249 18.7175C3.95389 17.3889 3.0491 15.6962 2.68255 13.8534L0.230582 14.3411ZM3.51472 20.4853L1.74696 22.253C3.77482 24.2809 6.35847 25.6619 9.17119 26.2214L9.65892 23.7694L10.1466 21.3175C8.30383 20.9509 6.61109 20.0461 5.28249 18.7175L3.51472 20.4853ZM9.65892 23.7694L9.17119 26.2214C11.9839 26.7809 14.8994 26.4937 17.5489 25.3962L16.5922 23.0865L15.6355 20.7769C13.8996 21.4959 11.9895 21.684 10.1466 21.3175L9.65892 23.7694ZM16.5922 23.0865L17.5489 25.3962C20.1984 24.2988 22.463 22.4403 24.0563 20.0558L21.9776 18.6668L19.899 17.2779C18.8551 18.8402 17.3714 20.0578 15.6355 20.7769L16.5922 23.0865ZM21.9776 18.6668L24.0563 20.0558C25.6496 17.6713 26.5 14.8678 26.5 12H24H21.5C21.5 13.8789 20.9428 15.7156 19.899 17.2779L21.9776 18.6668ZM24 12L26.5 11.9974C26.4959 8.15367 24.9672 4.46856 22.2493 1.75066L20.4816 3.51843L18.7138 5.2862C20.4953 7.06771 21.4973 9.4832 21.5 12.0026L24 12ZM20.4816 3.51843L22.2493 1.75066C19.5314 -0.967241 15.8463 -2.49594 12.0026 -2.5L12 0L11.9974 2.5C14.5168 2.50266 16.9323 3.50468 18.7138 5.2862L20.4816 3.51843ZM12 22.1538V19.6538C10.4862 19.6538 9.00642 19.205 7.74775 18.3639L6.35883 20.4426L4.9699 22.5213C7.05082 23.9117 9.49731 24.6538 12 24.6538V22.1538ZM6.35883 20.4426L7.74775 18.3639C6.48909 17.5229 5.50807 16.3276 4.92877 14.929L2.61907 15.8857L0.309375 16.8424C1.26711 19.1546 2.88899 21.1309 4.9699 22.5213L6.35883 20.4426ZM2.61907 15.8857L4.92877 14.929C4.34947 13.5304 4.1979 11.9915 4.49323 10.5068L2.04126 10.0191L-0.410701 9.53135C-0.898953 11.986 -0.648364 14.5302 0.309375 16.8424L2.61907 15.8857ZM2.04126 10.0191L4.49323 10.5068C4.78855 9.02211 5.51751 7.65832 6.58792 6.58791L4.82015 4.82015L3.05238 3.05238C1.28271 4.82205 0.0775501 7.07675 -0.410701 9.53135L2.04126 10.0191ZM4.82015 4.82015L6.58792 6.58791C7.65833 5.5175 9.02211 4.78855 10.5068 4.49322L10.0191 2.04126L9.53136 -0.410707C7.07676 0.0775448 4.82206 1.28271 3.05238 3.05238L4.82015 4.82015ZM10.0191 2.04126L10.5068 4.49322C11.9915 4.19789 13.5304 4.34947 14.929 4.92877L15.8857 2.61907L16.8424 0.30937C14.5302 -0.648369 11.986 -0.898958 9.53136 -0.410707L10.0191 2.04126ZM15.8857 2.61907L14.929 4.92877C16.3276 5.50807 17.5229 6.48908 18.3639 7.74775L20.4426 6.35882L22.5213 4.9699C21.1309 2.88898 19.1546 1.26711 16.8424 0.30937L15.8857 2.61907ZM20.4426 6.35882L18.3639 7.74775C19.205 9.00642 19.6538 10.4862 19.6538 12H22.1538H24.6538C24.6538 9.4973 23.9117 7.05081 22.5213 4.9699L20.4426 6.35882ZM22.1538 12L19.6538 11.9972C19.6515 14.0271 18.8441 15.9733 17.4087 17.4087L19.1765 19.1765L20.9443 20.9442C23.316 18.5725 24.65 15.3569 24.6538 12.0028L22.1538 12ZM19.1765 19.1765L17.4087 17.4087C15.9733 18.8441 14.0271 19.6515 11.9972 19.6538L12 22.1538L12.0028 24.6538C15.3569 24.65 18.5725 23.3159 20.9443 20.9442L19.1765 19.1765ZM19.3846 12H16.8846C16.8846 11.5818 17.0508 11.1807 17.3465 10.8849L19.1143 12.6527L20.882 14.4205C21.524 13.7785 21.8846 12.9079 21.8846 12H19.3846ZM19.1143 12.6527L17.3465 10.8849C17.6422 10.5892 18.0433 10.4231 18.4615 10.4231V12.9231V15.4231C19.3694 15.4231 20.2401 15.0624 20.882 14.4205L19.1143 12.6527ZM18.4615 12.9231V10.4231H12V12.9231V15.4231H18.4615V12.9231ZM12 12.9231V10.4231C12.4182 10.4231 12.8193 10.5892 13.1151 10.8849L11.3473 12.6527L9.57952 14.4205C10.2215 15.0624 11.0921 15.4231 12 15.4231V12.9231ZM11.3473 12.6527L13.1151 10.8849C13.4108 11.1807 13.5769 11.5818 13.5769 12H11.0769H8.57693C8.57693 12.9079 8.93757 13.7785 9.57952 14.4205L11.3473 12.6527ZM11.0769 12H13.5769V5.53846H11.0769H8.57693V12H11.0769ZM11.0769 5.53846H13.5769C13.5769 5.95669 13.4108 6.35778 13.1151 6.65351L11.3473 4.88575L9.57952 3.11798C8.93757 3.75993 8.57693 4.6306 8.57693 5.53846H11.0769ZM11.3473 4.88575L13.1151 6.65351C12.8193 6.94924 12.4182 7.11538 12 7.11538V4.61538V2.11538C11.0921 2.11538 10.2215 2.47603 9.57952 3.11798L11.3473 4.88575ZM12 4.61538V7.11538C11.5818 7.11538 11.1807 6.94924 10.885 6.65351L12.6527 4.88575L14.4205 3.11798C13.7785 2.47603 12.9079 2.11538 12 2.11538V4.61538ZM12.6527 4.88575L10.885 6.65351C10.5892 6.35778 10.4231 5.95668 10.4231 5.53846H12.9231H15.4231C15.4231 4.63061 15.0624 3.75994 14.4205 3.11798L12.6527 4.88575ZM12.9231 5.53846H10.4231V11.0769H12.9231H15.4231V5.53846H12.9231ZM12.9231 11.0769V13.5769H18.4615V11.0769V8.57692H12.9231V11.0769ZM18.4615 11.0769V13.5769C18.0433 13.5769 17.6422 13.4108 17.3465 13.1151L19.1143 11.3473L20.882 9.57952C20.2401 8.93757 19.3694 8.57692 18.4615 8.57692V11.0769ZM19.1143 11.3473L17.3465 13.1151C17.0508 12.8193 16.8846 12.4182 16.8846 12H19.3846H21.8846C21.8846 11.0921 21.524 10.2215 20.882 9.57952L19.1143 11.3473Z" fill="#0EA5E9" mask="url(#path-1-inside-1_336_1455)"/>
</svg>
