<svg width="32" height="32" viewBox="0 0 32 32" fill="none" xmlns="http://www.w3.org/2000/svg">
<path d="M29 16C29 16.2947 28.8859 16.5773 28.6827 16.7857C28.4795 16.994 28.204 17.1111 27.9167 17.1111H4.08333C3.79602 17.1111 3.52047 16.994 3.3173 16.7857C3.11414 16.5773 3 16.2947 3 16C3 15.7053 3.11414 15.4227 3.3173 15.2143C3.52047 15.006 3.79602 14.8889 4.08333 14.8889H27.9167C28.204 14.8889 28.4795 15.006 28.6827 15.2143C28.8859 15.4227 29 15.7053 29 16ZM4.08333 8.22222H27.9167C28.204 8.22222 28.4795 8.10516 28.6827 7.89679C28.8859 7.68841 29 7.4058 29 7.11111C29 6.81643 28.8859 6.53381 28.6827 6.32544C28.4795 6.11706 28.204 6 27.9167 6H4.08333C3.79602 6 3.52047 6.11706 3.3173 6.32544C3.11414 6.53381 3 6.81643 3 7.11111C3 7.4058 3.11414 7.68841 3.3173 7.89679C3.52047 8.10516 3.79602 8.22222 4.08333 8.22222ZM27.9167 23.7778H4.08333C3.79602 23.7778 3.52047 23.8948 3.3173 24.1032C3.11414 24.3116 3 24.5942 3 24.8889C3 25.1836 3.11414 25.4662 3.3173 25.6746C3.52047 25.8829 3.79602 26 4.08333 26H27.9167C28.204 26 28.4795 25.8829 28.6827 25.6746C28.8859 25.4662 29 25.1836 29 24.8889C29 24.5942 28.8859 24.3116 28.6827 24.1032C28.4795 23.8948 28.204 23.7778 27.9167 23.7778Z" fill="#005FAA"/>
</svg>
