<svg width="22" height="24" viewBox="0 0 22 24" fill="none" xmlns="http://www.w3.org/2000/svg">
<path d="M21.1025 10.4968L2.62471 0.220495C2.31303 0.0495337 1.95529 -0.0248309 1.59914 0.00730827C1.243 0.0394474 0.905358 0.176564 0.631207 0.400392C0.357055 0.624219 0.159408 0.924129 0.0645984 1.26017C-0.0302115 1.5962 -0.0176832 1.95241 0.100514 2.28134L3.4694 11.9972L0.100514 21.7141C0.00675917 21.9727 -0.0219814 22.2494 0.0167042 22.521C0.0553897 22.7926 0.160373 23.0513 0.322845 23.2752C0.485317 23.4991 0.700538 23.6818 0.950449 23.8079C1.20036 23.934 1.47767 23.9999 1.75911 24C2.06488 23.9994 2.3653 23.9219 2.63131 23.7749L21.1003 13.4815C21.3727 13.3328 21.5996 13.1161 21.7577 12.8538C21.9158 12.5914 21.9994 12.2928 22 11.9886C22.0006 11.6843 21.918 11.3854 21.7609 11.1225C21.6037 10.8596 21.3776 10.6422 21.1058 10.4925L21.1025 10.4968ZM1.75911 22.2853C1.75959 22.281 1.75959 22.2767 1.75911 22.2725L5.03011 12.8545H11.4379C11.6713 12.8545 11.8951 12.7642 12.0601 12.6034C12.2251 12.4426 12.3178 12.2246 12.3178 11.9972C12.3178 11.7698 12.2251 11.5517 12.0601 11.391C11.8951 11.2302 11.6713 11.1398 11.4379 11.1398H5.03011L1.76571 1.7262C1.76463 1.72014 1.76239 1.71432 1.75911 1.70906L20.2369 11.979L1.75911 22.2853Z" fill="white"/>
</svg>
