<svg width="20" height="22" viewBox="0 0 20 22" fill="none" xmlns="http://www.w3.org/2000/svg">
<path d="M19.184 9.6221L2.3861 0.20212C2.10275 0.0454059 1.77754 -0.0227617 1.45377 0.00669925C1.13 0.0361602 0.823053 0.161851 0.573824 0.367026C0.324595 0.572201 0.144917 0.847118 0.0587258 1.15515C-0.027465 1.46319 -0.0160756 1.78971 0.0913768 2.09122L3.154 10.9974L0.0913768 19.9046C0.0061447 20.1416 -0.0199831 20.3953 0.0151856 20.6443C0.0503543 20.8932 0.145794 21.1303 0.293495 21.3356C0.441197 21.5408 0.636853 21.7083 0.864045 21.8239C1.09124 21.9395 1.34334 21.9999 1.59919 22C1.87716 21.9994 2.15027 21.9284 2.3921 21.7937L19.1821 12.358C19.4297 12.2217 19.636 12.0231 19.7797 11.7826C19.9235 11.5421 19.9995 11.2684 20 10.9895C20.0005 10.7106 19.9255 10.4366 19.7826 10.1956C19.6398 9.95465 19.4342 9.75534 19.187 9.61817L19.184 9.6221ZM1.59919 20.4282C1.59962 20.4243 1.59962 20.4203 1.59919 20.4164L4.57283 11.7833H10.3981C10.6103 11.7833 10.8137 11.7005 10.9637 11.5531C11.1137 11.4058 11.198 11.2059 11.198 10.9974C11.198 10.789 11.1137 10.5891 10.9637 10.4417C10.8137 10.2943 10.6103 10.2115 10.3981 10.2115H4.57283L1.60519 1.58235C1.60421 1.57679 1.60217 1.57146 1.59919 1.56664L18.3971 10.9807L1.59919 20.4282Z" fill="white"/>
</svg>
