<svg width="17" height="12" viewBox="0 0 17 12" fill="none" xmlns="http://www.w3.org/2000/svg">
<path d="M16.8007 1.13862L5.92121 11.8045C5.85806 11.8665 5.78307 11.9156 5.70052 11.9492C5.61798 11.9827 5.52949 12 5.44014 12C5.35078 12 5.2623 11.9827 5.17975 11.9492C5.0972 11.9156 5.02221 11.8665 4.95906 11.8045L0.199269 7.13817C0.0716792 7.01309 0 6.84344 0 6.66654C0 6.48964 0.0716792 6.31999 0.199269 6.19491C0.326859 6.06982 0.499908 5.99955 0.680348 5.99955C0.860787 5.99955 1.03384 6.06982 1.16143 6.19491L5.44014 10.3904L15.8386 0.195356C15.9662 0.0702713 16.1392 -1.31798e-09 16.3197 0C16.5001 1.31798e-09 16.6731 0.0702713 16.8007 0.195356C16.9283 0.32044 17 0.490091 17 0.666988C17 0.843884 16.9283 1.01353 16.8007 1.13862Z" fill="#0D9488"/>
</svg>
