<svg width="20" height="18" viewBox="0 0 20 18" fill="none" xmlns="http://www.w3.org/2000/svg">
<path d="M19.8045 8.1952C19.7426 8.13322 19.6691 8.08405 19.5881 8.0505C19.5072 8.01695 19.4204 7.99968 19.3328 7.99968C19.2452 7.99968 19.1585 8.01695 19.0776 8.0505C18.9966 8.08405 18.9231 8.13322 18.8612 8.1952L14.6664 12.3909L7.60923 5.33359L11.8049 1.13868C11.8668 1.07674 11.9159 1.00321 11.9495 0.922282C11.983 0.841355 12.0002 0.754618 12.0002 0.667024C12.0002 0.579429 11.983 0.492692 11.9495 0.411765C11.9159 0.330838 11.8668 0.257306 11.8049 0.195367C11.7429 0.133428 11.6694 0.0842952 11.5885 0.0507742C11.5076 0.0172531 11.4208 -1.84592e-09 11.3332 0C11.2456 1.84592e-09 11.1589 0.0172531 11.078 0.0507742C10.997 0.0842952 10.9235 0.133428 10.8616 0.195367L6.66678 4.39111C6.46507 4.59286 6.33339 4.854 6.29109 5.13614C6.2488 5.41828 6.29811 5.70655 6.43179 5.95858L4.66687 7.72438C4.41703 7.9744 4.27668 8.31339 4.27668 8.66686C4.27668 9.02032 4.41703 9.35932 4.66687 9.60934L5.05769 10.0002L0.195421 14.8617C0.115002 14.9421 0.056471 15.0417 0.0253922 15.1511C-0.00568672 15.2604 -0.00828102 15.3759 0.0178561 15.4866C0.0439932 15.5972 0.0979931 15.6993 0.174723 15.7832C0.251453 15.8671 0.348363 15.93 0.456242 15.9659L6.45596 17.9658C6.52389 17.9886 6.59511 18.0002 6.66678 18C6.75435 18.0001 6.84107 17.9829 6.922 17.9494C7.00293 17.916 7.07647 17.8669 7.13842 17.805L9.99995 14.9426L10.3908 15.3334C10.6408 15.5832 10.9798 15.7236 11.3332 15.7236C11.6867 15.7236 12.0257 15.5832 12.2757 15.3334L14.0414 13.5684C14.2935 13.7021 14.5817 13.7514 14.8638 13.7091C15.146 13.6668 15.4071 13.5351 15.6089 13.3334L19.8045 9.13852C19.8665 9.0766 19.9156 9.00308 19.9492 8.92215C19.9827 8.84122 20 8.75447 20 8.66686C20 8.57925 19.9827 8.4925 19.9492 8.41157C19.9156 8.33064 19.8665 8.25711 19.8045 8.1952ZM6.48679 16.5709L1.90367 15.0417L6.00014 10.9426L9.0575 14.0001L6.48679 16.5709ZM11.3332 14.3909L5.60933 8.66686L7.33341 6.94273L13.0573 12.6668L11.3332 14.3909Z" fill="#EB8928"/>
</svg>
