<svg width="9" height="12" viewBox="0 0 9 12" fill="none" xmlns="http://www.w3.org/2000/svg">
<path d="M6.90632 10.97C6.90632 11.0778 6.86352 11.1811 6.78733 11.2573C6.71114 11.3335 6.60781 11.3763 6.50007 11.3763H2.43757C2.32982 11.3763 2.22649 11.3335 2.1503 11.2573C2.07412 11.1811 2.03132 11.0778 2.03132 10.97C2.03132 10.8623 2.07412 10.759 2.1503 10.6828C2.22649 10.6066 2.32982 10.5638 2.43757 10.5638H6.50007C6.60781 10.5638 6.71114 10.6066 6.78733 10.6828C6.86352 10.759 6.90632 10.8623 6.90632 10.97ZM8.93757 4.47005C8.93932 5.14729 8.78632 5.81598 8.49027 6.42508C8.19421 7.03418 7.76291 7.5676 7.22929 7.98462C7.12951 8.0611 7.04854 8.15938 6.99256 8.27195C6.93658 8.38452 6.90708 8.50839 6.90632 8.63411V8.9388C6.90632 9.15429 6.82071 9.36095 6.66834 9.51332C6.51597 9.66569 6.30931 9.7513 6.09382 9.7513H2.84382C2.62833 9.7513 2.42167 9.66569 2.26929 9.51332C2.11692 9.36095 2.03132 9.15429 2.03132 8.9388V8.63411C2.03123 8.5099 2.00267 8.38736 1.94783 8.27591C1.89298 8.16446 1.81332 8.06707 1.71495 7.99122C1.18266 7.57667 0.751652 7.04646 0.454548 6.44072C0.157443 5.83499 0.00202809 5.1696 6.6447e-05 4.49493C-0.0131367 2.0747 1.94296 0.0591877 4.36116 0.00129705C4.957 -0.0130615 5.5497 0.0919178 6.10436 0.310056C6.65902 0.528194 7.16444 0.855084 7.59087 1.27148C8.0173 1.68788 8.35613 2.18538 8.58741 2.73469C8.81868 3.28401 8.93774 3.87403 8.93757 4.47005ZM8.12507 4.47005C8.12521 3.98238 8.02779 3.4996 7.83855 3.05015C7.6493 2.60069 7.37206 2.19363 7.02313 1.85294C6.6742 1.51224 6.26064 1.2448 5.80679 1.06634C5.35295 0.887876 4.86799 0.802012 4.38046 0.813797C2.39999 0.860516 0.801902 2.50938 0.812566 4.48985C0.814422 5.04163 0.941752 5.58577 1.18492 6.08108C1.42809 6.57639 1.78073 7.00991 2.21616 7.34884C2.41189 7.501 2.57022 7.69593 2.67901 7.9187C2.7878 8.14148 2.84417 8.38619 2.84382 8.63411V8.9388H6.09382V8.63411C6.09438 8.38548 6.15172 8.14027 6.26146 7.91718C6.37121 7.69408 6.53046 7.499 6.72706 7.3468C7.16383 7.00547 7.51683 6.56885 7.75912 6.07028C8.00141 5.57171 8.12657 5.02437 8.12507 4.47005ZM7.30698 3.99575C7.20164 3.40735 6.91855 2.86534 6.49582 2.44271C6.0731 2.02007 5.53103 1.7371 4.94261 1.63188C4.88999 1.62301 4.83614 1.62459 4.78414 1.63654C4.73213 1.64848 4.68299 1.67054 4.63951 1.70148C4.59603 1.73241 4.55908 1.77161 4.53075 1.81682C4.50242 1.86204 4.48327 1.91239 4.4744 1.96501C4.46553 2.01762 4.46711 2.07147 4.47905 2.12348C4.491 2.17548 4.51306 2.22463 4.544 2.2681C4.57493 2.31158 4.61412 2.34854 4.65934 2.37687C4.70456 2.4052 4.75491 2.42434 4.80753 2.43321C5.64897 2.57489 6.36296 3.28888 6.50565 4.13184C6.52173 4.22646 6.57078 4.31233 6.64412 4.37424C6.71746 4.43614 6.81034 4.47008 6.90632 4.47005C6.92928 4.46991 6.95219 4.46804 6.97487 4.46446C7.08106 4.44633 7.1757 4.38677 7.23798 4.29887C7.30026 4.21098 7.32508 4.10194 7.30698 3.99575Z" fill="#FEDB36"/>
</svg>
