<svg width="13" height="14" viewBox="0 0 13 14" fill="none" xmlns="http://www.w3.org/2000/svg">
<g opacity="0.2" filter="url(#filter0_d_372_1528)">
<path d="M10.5118 5.43326C10.5124 6.06663 10.3735 6.69181 10.1056 7.26143C9.83775 7.83105 9.448 8.33015 8.96589 8.72091C8.81866 8.83888 8.69933 8.98996 8.61693 9.16269C8.53454 9.33542 8.49125 9.52527 8.49033 9.71786V10.0314C8.49033 10.1422 8.44774 10.2486 8.37192 10.3269C8.2961 10.4053 8.19326 10.4494 8.08604 10.4494H4.85164C4.74441 10.4494 4.64158 10.4053 4.56576 10.3269C4.48994 10.2486 4.44734 10.1422 4.44734 10.0314V9.71786C4.44715 9.52633 4.40472 9.33736 4.32327 9.16533C4.24183 8.9933 4.12352 8.84274 3.97734 8.72509C3.49672 8.3369 3.10742 7.84115 2.83871 7.27508C2.56999 6.70901 2.42883 6.08734 2.42584 5.45678C2.41371 3.19117 4.1805 1.30542 6.3713 1.25317C6.91038 1.23972 7.44663 1.3379 7.94846 1.54194C8.45029 1.74598 8.90757 2.05175 9.29339 2.44126C9.67921 2.83076 9.98577 3.29613 10.195 3.80997C10.4043 4.32381 10.512 4.87574 10.5118 5.43326Z" fill="#FEDB36"/>
</g>
<defs>
<filter id="filter0_d_372_1528" x="-1.57422" y="-1.74805" width="16.0859" height="17.1973" filterUnits="userSpaceOnUse" color-interpolation-filters="sRGB">
<feFlood flood-opacity="0" result="BackgroundImageFix"/>
<feColorMatrix in="SourceAlpha" type="matrix" values="0 0 0 0 0 0 0 0 0 0 0 0 0 0 0 0 0 0 127 0" result="hardAlpha"/>
<feOffset dy="1"/>
<feGaussianBlur stdDeviation="2"/>
<feComposite in2="hardAlpha" operator="out"/>
<feColorMatrix type="matrix" values="0 0 0 0 1 0 0 0 0 0.870588 0 0 0 0 0 0 0 0 1 0"/>
<feBlend mode="normal" in2="BackgroundImageFix" result="effect1_dropShadow_372_1528"/>
<feBlend mode="normal" in="SourceGraphic" in2="effect1_dropShadow_372_1528" result="shape"/>
</filter>
</defs>
</svg>
