<svg width="11" height="12" viewBox="0 0 11 12" fill="none" xmlns="http://www.w3.org/2000/svg">
<path d="M10.5261 5.22075L1.52016 0.135861C1.36834 0.0500493 1.19443 0.00320424 1.01641 0.000158163C0.838393 -0.0028833 0.662729 0.0379896 0.507553 0.118554C0.353857 0.197872 0.225824 0.31354 0.136614 0.453664C0.04741 0.593793 0.000255027 0.75332 0 0.915843V11.0845C0.00116012 11.3282 0.107156 11.5616 0.294696 11.7333C0.482235 11.905 0.735962 12.0009 1.0001 12C1.18447 11.9999 1.36524 11.953 1.52266 11.8644L10.5261 6.77956C10.6708 6.69815 10.7904 6.58374 10.8734 6.44736C10.9564 6.31097 11 6.15715 11 6.00074C11 5.84428 10.9564 5.6905 10.8734 5.55412C10.7904 5.41769 10.6708 5.30332 10.5261 5.22191V5.22075ZM1.0001 11.0735V0.923342L9.99044 6.00014L1.0001 11.0735Z" fill="#005FAA"/>
</svg>
