<svg width="32" height="32" viewBox="0 0 32 32" fill="none" xmlns="http://www.w3.org/2000/svg">
<path d="M29.05 14.3119L11.04 3.29437C10.7364 3.10844 10.3886 3.00694 10.0326 3.00034C9.67661 2.99375 9.32532 3.08231 9.015 3.25687C8.70764 3.42873 8.4516 3.67935 8.2732 3.98296C8.09481 4.28658 8.00051 4.63223 8 4.98437V27.0169C8.00232 27.5451 8.21429 28.0508 8.58933 28.4228C8.96437 28.7948 9.47177 29.0026 10 29.0006C10.3687 29.0005 10.7302 28.8988 11.045 28.7069L29.05 17.6894C29.3394 17.513 29.5786 17.2651 29.7446 16.9696C29.9105 16.6741 29.9977 16.3408 29.9977 16.0019C29.9977 15.6629 29.9105 15.3297 29.7446 15.0342C29.5786 14.7386 29.3394 14.4908 29.05 14.3144V14.3119ZM10 26.9931V5.00062L27.9788 16.0006L10 26.9931Z" fill="#7A8FA6"/>
</svg>
